<svg width="38" height="38" xmlns="http://www.w3.org/2000/svg" xmlns:xlink="http://www.w3.org/1999/xlink" xml:space="preserve" overflow="hidden"><g transform="translate(-558 -114)"><path d="M577 137.75C574.388 137.75 572.25 135.613 572.25 133 572.25 130.387 574.388 128.25 577 128.25 579.612 128.25 581.75 130.387 581.75 133 581.75 135.613 579.612 137.75 577 137.75ZM587.688 130.031C587.45 129.16 587.094 128.329 586.658 127.577L587.648 124.608 585.392 122.352 582.423 123.342C581.631 122.906 580.8 122.55 579.929 122.312L578.583 119.542 575.417 119.542 574.031 122.312C573.16 122.55 572.329 122.906 571.577 123.342L568.608 122.352 566.352 124.608 567.342 127.577C566.906 128.369 566.55 129.2 566.312 130.071L563.542 131.417 563.542 134.583 566.312 135.969C566.55 136.84 566.906 137.671 567.342 138.423L566.352 141.392 568.608 143.648 571.577 142.658C572.369 143.094 573.2 143.45 574.071 143.688L575.456 146.458 578.623 146.458 580.008 143.688C580.879 143.45 581.71 143.094 582.463 142.658L585.431 143.648 587.688 141.392 586.698 138.423C587.133 137.631 587.49 136.8 587.727 135.929L590.498 134.544 590.498 131.377 587.688 130.031Z"/></g></svg>